<?xml version="1.0" standalone="no"?>
<!DOCTYPE svg PUBLIC "-//W3C//DTD SVG 20010904//EN"
 "http://www.w3.org/TR/2001/REC-SVG-20010904/DTD/svg10.dtd">
<svg version="1.0" xmlns="http://www.w3.org/2000/svg"
 width="300.000000pt" height="336.000000pt" viewBox="0 0 300.000000 336.000000"
 preserveAspectRatio="xMidYMid meet">
<metadata>
Created by potrace 1.10, written by Peter Selinger 2001-2011
</metadata>
<g transform="translate(0.000000,336.000000) scale(0.100000,-0.100000)"
fill="#000000" stroke="none">
<path d="M1573 3182 c-18 -26 -59 -73 -92 -106 -57 -56 -59 -58 -70 -37 -9 15
-9 32 -2 58 6 20 8 39 6 41 -8 9 -52 -26 -158 -128 l-107 -102 -26 31 c-14 17
-33 31 -41 31 -26 0 -401 -329 -467 -410 -82 -100 -119 -276 -95 -451 7 -52
12 -112 12 -134 l-2 -40 105 -29 c62 -17 108 -36 113 -45 5 -9 17 -60 27 -114
13 -69 23 -101 35 -108 26 -13 227 -29 382 -29 l139 0 30 32 c32 35 68 100 88
162 9 29 15 35 22 25 6 -10 8 -7 6 10 -2 13 2 26 9 28 6 2 20 -24 33 -64 12
-37 36 -94 53 -125 26 -50 35 -60 71 -70 47 -14 442 -14 491 0 28 8 32 14 55
108 33 130 34 130 67 138 15 4 58 16 96 28 l67 20 0 39 c0 21 -5 39 -10 39 -7
0 -7 8 1 22 7 12 14 63 17 113 7 159 -40 292 -156 436 -33 41 -166 179 -295
308 l-235 234 -7 -42 c-7 -44 -25 -56 -25 -17 0 13 -6 37 -12 53 -17 39 -81
143 -88 143 -3 0 -19 -22 -37 -48z m90 -110 l39 -73 36 6 37 6 221 -223 c256
-260 300 -312 339 -404 16 -38 15 -37 -51 29 -37 37 -73 67 -80 67 -8 0 -48
34 -90 75 -45 44 -99 86 -132 102 -52 26 -67 28 -167 28 -103 -1 -116 -3 -204
-38 -136 -54 -223 -49 -456 28 -52 17 -105 27 -151 28 -62 1 -80 -3 -135 -31
-122 -61 -239 -199 -293 -347 l-15 -40 5 55 c7 86 60 184 141 262 92 89 214
198 297 266 l68 56 39 -22 c49 -28 55 -25 161 74 43 41 83 74 87 74 5 0 16
-11 25 -25 29 -44 73 -29 150 50 15 17 35 40 44 53 24 36 44 23 85 -56z m-500
-437 c122 -39 248 -65 313 -65 27 0 76 13 126 34 114 46 179 60 251 52 88 -9
158 -45 237 -123 38 -38 90 -81 116 -98 58 -36 127 -133 149 -208 8 -29 17
-90 20 -136 2 -47 7 -92 10 -101 4 -13 -11 -21 -70 -38 -93 -27 -99 -27 -128
2 -15 14 -47 29 -83 37 -75 17 -370 16 -479 -2 -105 -17 -172 -16 -275 5 -49
9 -162 19 -266 23 -195 6 -268 -3 -300 -38 -23 -25 -44 -24 -136 7 l-78 26 16
30 c12 22 14 45 9 87 -9 77 10 185 45 256 57 117 177 239 268 271 64 23 138
16 255 -21z m161 -674 c43 -12 80 -21 82 -21 2 0 4 -26 4 -58 0 -77 -24 -154
-60 -196 -26 -30 -38 -35 -95 -41 -83 -8 -418 14 -427 29 -13 20 -29 110 -35
197 l-6 87 64 16 c94 23 365 15 473 -13z m771 -5 c39 -9 75 -20 82 -24 14 -9
0 -149 -23 -234 l-16 -56 -97 -8 c-151 -11 -373 0 -404 21 -45 29 -70 97 -71
193 l-1 85 30 9 c135 39 366 45 500 14z m-570 -46 c0 -9 -12 -15 -37 -16 -32
-2 -38 0 -38 17 0 17 6 20 38 17 24 -2 37 -8 37 -18z"/>
<path d="M1157 2276 c-121 -32 -157 -44 -154 -56 2 -8 10 -13 18 -11 111 27
312 81 316 85 6 6 -6 26 -15 25 -4 -1 -78 -20 -165 -43z"/>
<path d="M1607 2306 c-7 -17 -14 -14 190 -65 138 -35 143 -36 143 -18 0 7 -57
27 -152 51 -84 22 -158 41 -164 43 -6 2 -14 -3 -17 -11z"/>
<path d="M1163 2136 c-46 -15 -119 -63 -128 -86 -4 -8 3 -6 17 7 13 12 48 34
78 49 104 52 220 31 289 -53 38 -46 42 -34 5 15 -53 69 -164 98 -261 68z"/>
<path d="M1665 2143 c-70 -16 -132 -60 -161 -115 -21 -40 -11 -34 19 11 16 24
45 48 78 65 92 45 183 31 283 -46 l41 -32 -34 37 c-51 54 -164 95 -226 80z"/>
<path d="M949 1925 c-11 -25 -19 -54 -17 -64 2 -10 13 11 24 46 25 74 22 83
-7 18z"/>
<path d="M1301 1846 c-17 -20 -2 -46 25 -46 29 0 41 24 24 45 -16 19 -34 19
-49 1z"/>
<path d="M1989 1880 c8 -32 17 -57 19 -55 6 6 -19 104 -27 110 -4 2 -1 -23 8
-55z"/>
<path d="M1602 1848 c-16 -16 -15 -33 2 -47 16 -14 42 -5 50 16 7 17 -10 43
-28 43 -7 0 -17 -5 -24 -12z"/>
<path d="M541 1869 c-2 -111 79 -338 162 -453 l36 -49 -49 -46 c-82 -78 -76
-134 19 -168 l50 -17 -35 -43 c-94 -115 -179 -423 -145 -526 16 -48 72 -95
121 -103 24 -4 40 -12 40 -20 0 -8 12 -16 28 -20 96 -22 87 -12 88 -96 l1 -76
-33 -6 c-17 -4 -37 -12 -42 -19 -8 -10 67 -12 361 -12 205 0 528 -4 720 -8
361 -9 408 -4 289 29 l-58 16 0 74 c0 58 3 75 16 78 8 2 45 10 82 16 63 11 67
14 62 35 -4 18 2 26 30 43 70 41 97 133 60 204 -9 17 -25 63 -36 102 -21 76
-79 200 -127 271 l-29 43 38 6 c51 8 90 41 90 75 0 30 -18 60 -68 113 l-34 36
40 54 c23 29 59 90 82 135 41 82 91 251 89 302 0 14 -9 -14 -19 -62 -33 -156
-91 -280 -199 -423 -111 -145 -284 -256 -487 -310 -54 -14 -103 -18 -224 -18
-139 1 -164 3 -243 27 -226 69 -390 190 -510 377 -90 140 -126 236 -151 398
-12 71 -14 78 -15 41z m254 -600 c89 -91 237 -182 370 -227 68 -23 178 -42
257 -45 l58 -1 0 -308 c0 -194 4 -309 10 -313 7 -4 10 102 10 309 l0 316 38 1
c178 2 383 84 540 216 48 40 92 73 99 73 17 0 53 -40 59 -67 9 -35 -1 -49 -45
-69 -50 -22 -58 -44 -34 -92 11 -20 37 -70 57 -110 37 -71 60 -141 47 -143 -3
0 -24 -2 -46 -4 -65 -6 -78 -10 -128 -37 l-46 -26 -13 45 c-13 45 -13 44 -13
-53 0 -55 3 -103 6 -109 3 -5 12 -29 19 -53 13 -40 49 -81 96 -108 17 -10 16
-12 -14 -28 -17 -9 -32 -20 -32 -25 0 -18 -273 -55 -496 -67 -236 -12 -676 34
-740 78 -19 13 -34 26 -34 30 0 4 12 19 27 34 26 27 83 149 83 180 0 8 -5 23
-12 33 -9 15 -8 28 4 60 9 23 13 41 8 41 -5 0 -14 -16 -20 -35 -12 -35 -23
-44 -35 -25 -3 6 -15 10 -26 10 -10 0 -19 4 -19 8 0 19 -79 35 -139 28 -34 -4
-61 -3 -61 1 0 24 42 156 59 185 46 77 81 148 81 162 0 9 -12 23 -27 33 -42
25 -73 55 -73 69 0 20 50 74 69 74 9 0 35 -18 56 -41z m1485 -511 c68 -47 89
-136 47 -199 -72 -107 -203 -103 -257 8 -13 26 -27 56 -32 65 -22 46 3 108 43
108 10 0 33 9 51 20 45 27 106 26 148 -2z m-1487 -7 c20 -10 48 -22 62 -25 14
-4 32 -18 42 -32 15 -24 15 -28 1 -57 -9 -18 -19 -44 -22 -59 -8 -36 -49 -83
-86 -98 -50 -21 -118 -5 -161 39 -49 48 -59 97 -33 160 15 36 28 51 64 69 54
27 84 28 133 3z m252 -401 c44 -6 112 -13 150 -16 39 -3 76 -7 84 -10 33 -11
374 -3 522 12 90 9 184 17 208 18 l44 1 3 -56 3 -57 -312 6 c-172 3 -433 5
-582 6 l-270 1 4 50 c4 63 7 67 39 61 15 -3 63 -10 107 -16z"/>
<path d="M2143 700 c13 -36 4 -58 -34 -77 -23 -12 -24 -13 -2 -13 43 0 72 82
39 110 -13 10 -13 7 -3 -20z"/>
<path d="M786 698 c-9 -12 -16 -31 -16 -41 0 -23 44 -67 67 -67 13 0 9 6 -14
19 -40 25 -50 54 -29 86 20 31 13 33 -8 3z"/>
<path d="M1270 1292 c0 -30 201 -174 214 -153 3 5 31 23 61 40 71 40 139 101
127 113 -5 5 -98 12 -206 15 -193 6 -196 6 -196 -15z m108 -19 c-5 -26 -50
-28 -66 -3 -11 19 -10 20 29 20 33 0 40 -3 37 -17z m92 -8 c0 -22 -4 -25 -40
-25 -36 0 -40 3 -40 25 0 23 4 25 40 25 36 0 40 -2 40 -25z m100 20 c0 -2 -5
-16 -12 -30 -9 -19 -19 -25 -45 -25 -30 0 -33 3 -33 30 0 29 2 30 45 30 25 0
45 -2 45 -5z m78 -7 c-5 -17 -72 -51 -76 -39 -2 6 2 19 8 30 12 24 75 31 68 9z"/>
</g>
</svg>
